<svg xmlns="http://www.w3.org/2000/svg" viewBox="0 0 240 160" width="240" height="160">
  <path d="M40 98 h164 l-22 34 h-124Z" fill="#253851"/>
  <rect x="72" y="70" width="90" height="28" rx="3" fill="#2C4A6E"/>
  <g fill="#4F6E94">
    <rect x="80" y="76" width="16" height="14" rx="2"/><rect x="104" y="76" width="16" height="14" rx="2"/>
    <rect x="128" y="76" width="16" height="14" rx="2"/>
  </g>
  <rect x="150" y="40" width="10" height="30" fill="#2C4A6E"/>
  <path d="M160 42 h34 l-10 12 10 12 h-34Z" fill="#9B2226"/>
  <rect x="96" y="54" width="44" height="18" rx="3" fill="#B7C1CE"/>
  <g stroke="#4F80AD" stroke-width="4.5" stroke-linecap="round" fill="none" opacity="0.85">
    <path d="M14 140 c14 -9 28 9 42 0 c14 -9 28 9 42 0 c14 -9 28 9 42 0 c14 -9 28 9 42 0"/>
    <path d="M40 152 c14 -9 28 9 42 0 c14 -9 28 9 42 0"/>
  </g>
</svg>
