<svg xmlns="http://www.w3.org/2000/svg" viewBox="0 0 240 160" width="240" height="160">
  <g stroke="#0E5FA4" stroke-width="5" fill="none" stroke-linecap="round">
    <path d="M96 48 L84 140"/><path d="M144 48 L156 140"/>
    <path d="M100 82 H140"/><path d="M94 108 H146"/>
  </g>
  <circle cx="120" cy="40" r="11" fill="#0E5FA4"/>
  <g stroke="#0E5FA4" stroke-width="4.5" fill="none" stroke-linecap="round" opacity="0.65">
    <path d="M86 24 a44 44 0 0 0 0 32" transform="translate(-6 0)"/>
    <path d="M154 24 a44 44 0 0 1 0 32" transform="translate(6 0)"/>
  </g>
  <g stroke="#ADC9E0" stroke-width="4.5" fill="none" stroke-linecap="round">
    <path d="M58 12 a68 68 0 0 0 0 56"/>
    <path d="M182 12 a68 68 0 0 1 0 56"/>
  </g>
  <rect x="42" y="138" width="156" height="10" rx="5" fill="#ADC9E0"/>
</svg>
