<?xml version='1.0' encoding='UTF-8'?>
<svg width="49mm" height="49mm" version="1.1" viewBox="0 0 49 49" fill_color="#7A1E2B" back_color="#FFFFFF" xmlns="http://www.w3.org/2000/svg"><path d="M4,4H5V5H4zM5,4H6V5H5zM6,4H7V5H6zM7,4H8V5H7zM8,4H9V5H8zM9,4H10V5H9zM10,4H11V5H10zM13,4H14V5H13zM14,4H15V5H14zM16,4H17V5H16zM18,4H19V5H18zM19,4H20V5H19zM20,4H21V5H20zM22,4H23V5H22zM23,4H24V5H23zM24,4H25V5H24zM27,4H28V5H27zM28,4H29V5H28zM29,4H30V5H29zM33,4H34V5H33zM34,4H35V5H34zM35,4H36V5H35zM36,4H37V5H36zM38,4H39V5H38zM39,4H40V5H39zM40,4H41V5H40zM41,4H42V5H41zM42,4H43V5H42zM43,4H44V5H43zM44,4H45V5H44zM4,5H5V6H4zM10,5H11V6H10zM13,5H14V6H13zM16,5H17V6H16zM18,5H19V6H18zM19,5H20V6H19zM20,5H21V6H20zM22,5H23V6H22zM24,5H25V6H24zM26,5H27V6H26zM29,5H30V6H29zM30,5H31V6H30zM31,5H32V6H31zM32,5H33V6H32zM34,5H35V6H34zM38,5H39V6H38zM44,5H45V6H44zM4,6H5V7H4zM6,6H7V7H6zM7,6H8V7H7zM8,6H9V7H8zM10,6H11V7H10zM12,6H13V7H12zM14,6H15V7H14zM15,6H16V7H15zM18,6H19V7H18zM20,6H21V7H20zM24,6H25V7H24zM27,6H28V7H27zM28,6H29V7H28zM30,6H31V7H30zM31,6H32V7H31zM32,6H33V7H32zM34,6H35V7H34zM35,6H36V7H35zM36,6H37V7H36zM38,6H39V7H38zM40,6H41V7H40zM41,6H42V7H41zM42,6H43V7H42zM44,6H45V7H44zM4,7H5V8H4zM6,7H7V8H6zM7,7H8V8H7zM8,7H9V8H8zM10,7H11V8H10zM12,7H13V8H12zM14,7H15V8H14zM15,7H16V8H15zM20,7H21V8H20zM22,7H23V8H22zM23,7H24V8H23zM24,7H25V8H24zM25,7H26V8H25zM26,7H27V8H26zM29,7H30V8H29zM30,7H31V8H30zM31,7H32V8H31zM33,7H34V8H33zM38,7H39V8H38zM40,7H41V8H40zM41,7H42V8H41zM42,7H43V8H42zM44,7H45V8H44zM4,8H5V9H4zM6,8H7V9H6zM7,8H8V9H7zM8,8H9V9H8zM10,8H11V9H10zM12,8H13V9H12zM13,8H14V9H13zM15,8H16V9H15zM17,8H18V9H17zM18,8H19V9H18zM19,8H20V9H19zM20,8H21V9H20zM21,8H22V9H21zM23,8H24V9H23zM24,8H25V9H24zM27,8H28V9H27zM32,8H33V9H32zM34,8H35V9H34zM35,8H36V9H35zM36,8H37V9H36zM38,8H39V9H38zM40,8H41V9H40zM41,8H42V9H41zM42,8H43V9H42zM44,8H45V9H44zM4,9H5V10H4zM10,9H11V10H10zM12,9H13V10H12zM14,9H15V10H14zM15,9H16V10H15zM18,9H19V10H18zM24,9H25V10H24zM26,9H27V10H26zM29,9H30V10H29zM31,9H32V10H31zM32,9H33V10H32zM36,9H37V10H36zM38,9H39V10H38zM44,9H45V10H44zM4,10H5V11H4zM5,10H6V11H5zM6,10H7V11H6zM7,10H8V11H7zM8,10H9V11H8zM9,10H10V11H9zM10,10H11V11H10zM12,10H13V11H12zM14,10H15V11H14zM16,10H17V11H16zM18,10H19V11H18zM20,10H21V11H20zM22,10H23V11H22zM24,10H25V11H24zM26,10H27V11H26zM28,10H29V11H28zM30,10H31V11H30zM32,10H33V11H32zM34,10H35V11H34zM36,10H37V11H36zM38,10H39V11H38zM39,10H40V11H39zM40,10H41V11H40zM41,10H42V11H41zM42,10H43V11H42zM43,10H44V11H43zM44,10H45V11H44zM12,11H13V12H12zM16,11H17V12H16zM17,11H18V12H17zM18,11H19V12H18zM19,11H20V12H19zM20,11H21V12H20zM24,11H25V12H24zM25,11H26V12H25zM30,11H31V12H30zM31,11H32V12H31zM34,11H35V12H34zM36,11H37V12H36zM4,12H5V13H4zM6,12H7V13H6zM7,12H8V13H7zM8,12H9V13H8zM9,12H10V13H9zM10,12H11V13H10zM14,12H15V13H14zM16,12H17V13H16zM17,12H18V13H17zM20,12H21V13H20zM21,12H22V13H21zM22,12H23V13H22zM23,12H24V13H23zM26,12H27V13H26zM27,12H28V13H27zM28,12H29V13H28zM29,12H30V13H29zM30,12H31V13H30zM31,12H32V13H31zM33,12H34V13H33zM36,12H37V13H36zM38,12H39V13H38zM39,12H40V13H39zM40,12H41V13H40zM41,12H42V13H41zM42,12H43V13H42zM7,13H8V14H7zM8,13H9V14H8zM9,13H10V14H9zM15,13H16V14H15zM17,13H18V14H17zM19,13H20V14H19zM22,13H23V14H22zM23,13H24V14H23zM24,13H25V14H24zM25,13H26V14H25zM26,13H27V14H26zM27,13H28V14H27zM29,13H30V14H29zM32,13H33V14H32zM35,13H36V14H35zM36,13H37V14H36zM37,13H38V14H37zM38,13H39V14H38zM39,13H40V14H39zM40,13H41V14H40zM42,13H43V14H42zM43,13H44V14H43zM44,13H45V14H44zM4,14H5V15H4zM5,14H6V15H5zM7,14H8V15H7zM10,14H11V15H10zM12,14H13V15H12zM13,14H14V15H13zM14,14H15V15H14zM22,14H23V15H22zM24,14H25V15H24zM25,14H26V15H25zM26,14H27V15H26zM29,14H30V15H29zM30,14H31V15H30zM31,14H32V15H31zM33,14H34V15H33zM34,14H35V15H34zM36,14H37V15H36zM37,14H38V15H37zM40,14H41V15H40zM43,14H44V15H43zM4,15H5V16H4zM6,15H7V16H6zM7,15H8V16H7zM9,15H10V16H9zM11,15H12V16H11zM15,15H16V16H15zM16,15H17V16H16zM18,15H19V16H18zM19,15H20V16H19zM22,15H23V16H22zM25,15H26V16H25zM28,15H29V16H28zM31,15H32V16H31zM35,15H36V16H35zM36,15H37V16H36zM38,15H39V16H38zM40,15H41V16H40zM41,15H42V16H41zM43,15H44V16H43zM44,15H45V16H44zM4,16H5V17H4zM5,16H6V17H5zM7,16H8V17H7zM8,16H9V17H8zM10,16H11V17H10zM11,16H12V17H11zM13,16H14V17H13zM14,16H15V17H14zM15,16H16V17H15zM17,16H18V17H17zM18,16H19V17H18zM19,16H20V17H19zM20,16H21V17H20zM21,16H22V17H21zM26,16H27V17H26zM29,16H30V17H29zM33,16H34V17H33zM34,16H35V17H34zM35,16H36V17H35zM41,16H42V17H41zM42,16H43V17H42zM44,16H45V17H44zM7,17H8V18H7zM8,17H9V18H8zM9,17H10V18H9zM14,17H15V18H14zM15,17H16V18H15zM17,17H18V18H17zM18,17H19V18H18zM19,17H20V18H19zM20,17H21V18H20zM21,17H22V18H21zM22,17H23V18H22zM24,17H25V18H24zM28,17H29V18H28zM29,17H30V18H29zM32,17H33V18H32zM34,17H35V18H34zM35,17H36V18H35zM36,17H37V18H36zM37,17H38V18H37zM38,17H39V18H38zM39,17H40V18H39zM40,17H41V18H40zM41,17H42V18H41zM42,17H43V18H42zM43,17H44V18H43zM44,17H45V18H44zM9,18H10V19H9zM10,18H11V19H10zM12,18H13V19H12zM13,18H14V19H13zM14,18H15V19H14zM15,18H16V19H15zM18,18H19V19H18zM20,18H21V19H20zM21,18H22V19H21zM23,18H24V19H23zM25,18H26V19H25zM26,18H27V19H26zM30,18H31V19H30zM31,18H32V19H31zM32,18H33V19H32zM34,18H35V19H34zM37,18H38V19H37zM41,18H42V19H41zM42,18H43V19H42zM4,19H5V20H4zM6,19H7V20H6zM7,19H8V20H7zM8,19H9V20H8zM11,19H12V20H11zM13,19H14V20H13zM16,19H17V20H16zM17,19H18V20H17zM18,19H19V20H18zM20,19H21V20H20zM22,19H23V20H22zM23,19H24V20H23zM24,19H25V20H24zM25,19H26V20H25zM26,19H27V20H26zM28,19H29V20H28zM30,19H31V20H30zM31,19H32V20H31zM32,19H33V20H32zM35,19H36V20H35zM36,19H37V20H36zM38,19H39V20H38zM39,19H40V20H39zM41,19H42V20H41zM5,20H6V21H5zM6,20H7V21H6zM7,20H8V21H7zM9,20H10V21H9zM10,20H11V21H10zM12,20H13V21H12zM13,20H14V21H13zM14,20H15V21H14zM18,20H19V21H18zM19,20H20V21H19zM20,20H21V21H20zM21,20H22V21H21zM23,20H24V21H23zM26,20H27V21H26zM28,20H29V21H28zM29,20H30V21H29zM30,20H31V21H30zM31,20H32V21H31zM32,20H33V21H32zM33,20H34V21H33zM34,20H35V21H34zM35,20H36V21H35zM36,20H37V21H36zM37,20H38V21H37zM39,20H40V21H39zM42,20H43V21H42zM44,20H45V21H44zM6,21H7V22H6zM7,21H8V22H7zM8,21H9V22H8zM12,21H13V22H12zM13,21H14V22H13zM15,21H16V22H15zM16,21H17V22H16zM17,21H18V22H17zM20,21H21V22H20zM21,21H22V22H21zM22,21H23V22H22zM23,21H24V22H23zM25,21H26V22H25zM27,21H28V22H27zM32,21H33V22H32zM34,21H35V22H34zM35,21H36V22H35zM36,21H37V22H36zM38,21H39V22H38zM39,21H40V22H39zM40,21H41V22H40zM41,21H42V22H41zM42,21H43V22H42zM43,21H44V22H43zM44,21H45V22H44zM4,22H5V23H4zM6,22H7V23H6zM8,22H9V23H8zM9,22H10V23H9zM10,22H11V23H10zM13,22H14V23H13zM15,22H16V23H15zM16,22H17V23H16zM17,22H18V23H17zM18,22H19V23H18zM19,22H20V23H19zM20,22H21V23H20zM21,22H22V23H21zM24,22H25V23H24zM25,22H26V23H25zM29,22H30V23H29zM31,22H32V23H31zM34,22H35V23H34zM36,22H37V23H36zM37,22H38V23H37zM38,22H39V23H38zM40,22H41V23H40zM43,22H44V23H43zM5,23H6V24H5zM13,23H14V24H13zM14,23H15V24H14zM16,23H17V24H16zM17,23H18V24H17zM20,23H21V24H20zM21,23H22V24H21zM22,23H23V24H22zM25,23H26V24H25zM26,23H27V24H26zM28,23H29V24H28zM30,23H31V24H30zM31,23H32V24H31zM36,23H37V24H36zM37,23H38V24H37zM40,23H41V24H40zM41,23H42V24H41zM43,23H44V24H43zM44,23H45V24H44zM4,24H5V25H4zM7,24H8V25H7zM9,24H10V25H9zM10,24H11V25H10zM11,24H12V25H11zM12,24H13V25H12zM13,24H14V25H13zM15,24H16V25H15zM16,24H17V25H16zM19,24H20V25H19zM20,24H21V25H20zM25,24H26V25H25zM28,24H29V25H28zM29,24H30V25H29zM33,24H34V25H33zM34,24H35V25H34zM35,24H36V25H35zM36,24H37V25H36zM37,24H38V25H37zM42,24H43V25H42zM44,24H45V25H44zM9,25H10V26H9zM12,25H13V26H12zM14,25H15V26H14zM17,25H18V26H17zM18,25H19V26H18zM19,25H20V26H19zM20,25H21V26H20zM21,25H22V26H21zM22,25H23V26H22zM23,25H24V26H23zM25,25H26V26H25zM26,25H27V26H26zM27,25H28V26H27zM28,25H29V26H28zM32,25H33V26H32zM34,25H35V26H34zM35,25H36V26H35zM36,25H37V26H36zM37,25H38V26H37zM38,25H39V26H38zM39,25H40V26H39zM40,25H41V26H40zM41,25H42V26H41zM42,25H43V26H42zM43,25H44V26H43zM44,25H45V26H44zM7,26H8V27H7zM8,26H9V27H8zM9,26H10V27H9zM10,26H11V27H10zM12,26H13V27H12zM13,26H14V27H13zM16,26H17V27H16zM18,26H19V27H18zM19,26H20V27H19zM21,26H22V27H21zM24,26H25V27H24zM25,26H26V27H25zM26,26H27V27H26zM29,26H30V27H29zM31,26H32V27H31zM32,26H33V27H32zM37,26H38V27H37zM38,26H39V27H38zM39,26H40V27H39zM40,26H41V27H40zM41,26H42V27H41zM8,27H9V28H8zM9,27H10V28H9zM13,27H14V28H13zM16,27H17V28H16zM17,27H18V28H17zM18,27H19V28H18zM20,27H21V28H20zM22,27H23V28H22zM24,27H25V28H24zM25,27H26V28H25zM26,27H27V28H26zM28,27H29V28H28zM30,27H31V28H30zM31,27H32V28H31zM32,27H33V28H32zM34,27H35V28H34zM35,27H36V28H35zM36,27H37V28H36zM37,27H38V28H37zM40,27H41V28H40zM41,27H42V28H41zM43,27H44V28H43zM4,28H5V29H4zM5,28H6V29H5zM7,28H8V29H7zM10,28H11V29H10zM11,28H12V29H11zM13,28H14V29H13zM14,28H15V29H14zM16,28H17V29H16zM17,28H18V29H17zM21,28H22V29H21zM26,28H27V29H26zM27,28H28V29H27zM28,28H29V29H28zM29,28H30V29H29zM31,28H32V29H31zM33,28H34V29H33zM39,28H40V29H39zM41,28H42V29H41zM42,28H43V29H42zM43,28H44V29H43zM4,29H5V30H4zM6,29H7V30H6zM7,29H8V30H7zM8,29H9V30H8zM13,29H14V30H13zM14,29H15V30H14zM16,29H17V30H16zM19,29H20V30H19zM20,29H21V30H20zM21,29H22V30H21zM23,29H24V30H23zM24,29H25V30H24zM27,29H28V30H27zM29,29H30V30H29zM32,29H33V30H32zM33,29H34V30H33zM35,29H36V30H35zM37,29H38V30H37zM38,29H39V30H38zM39,29H40V30H39zM40,29H41V30H40zM41,29H42V30H41zM43,29H44V30H43zM44,29H45V30H44zM5,30H6V31H5zM10,30H11V31H10zM12,30H13V31H12zM13,30H14V31H13zM15,30H16V31H15zM17,30H18V31H17zM19,30H20V31H19zM22,30H23V31H22zM24,30H25V31H24zM25,30H26V31H25zM28,30H29V31H28zM30,30H31V31H30zM31,30H32V31H31zM33,30H34V31H33zM36,30H37V31H36zM37,30H38V31H37zM38,30H39V31H38zM39,30H40V31H39zM40,30H41V31H40zM4,31H5V32H4zM6,31H7V32H6zM7,31H8V32H7zM11,31H12V32H11zM12,31H13V32H12zM14,31H15V32H14zM15,31H16V32H15zM16,31H17V32H16zM22,31H23V32H22zM23,31H24V32H23zM25,31H26V32H25zM28,31H29V32H28zM30,31H31V32H30zM32,31H33V32H32zM35,31H36V32H35zM36,31H37V32H36zM37,31H38V32H37zM39,31H40V32H39zM41,31H42V32H41zM8,32H9V33H8zM10,32H11V33H10zM12,32H13V33H12zM15,32H16V33H15zM16,32H17V33H16zM21,32H22V33H21zM24,32H25V33H24zM26,32H27V33H26zM27,32H28V33H27zM28,32H29V33H28zM29,32H30V33H29zM30,32H31V33H30zM31,32H32V33H31zM32,32H33V33H32zM33,32H34V33H33zM35,32H36V33H35zM37,32H38V33H37zM41,32H42V33H41zM42,32H43V33H42zM43,32H44V33H43zM4,33H5V34H4zM5,33H6V34H5zM7,33H8V34H7zM8,33H9V34H8zM12,33H13V34H12zM13,33H14V34H13zM14,33H15V34H14zM15,33H16V34H15zM17,33H18V34H17zM18,33H19V34H18zM22,33H23V34H22zM25,33H26V34H25zM26,33H27V34H26zM29,33H30V34H29zM32,33H33V34H32zM33,33H34V34H33zM35,33H36V34H35zM36,33H37V34H36zM37,33H38V34H37zM38,33H39V34H38zM39,33H40V34H39zM40,33H41V34H40zM41,33H42V34H41zM42,33H43V34H42zM43,33H44V34H43zM44,33H45V34H44zM4,34H5V35H4zM6,34H7V35H6zM7,34H8V35H7zM8,34H9V35H8zM10,34H11V35H10zM12,34H13V35H12zM17,34H18V35H17zM18,34H19V35H18zM19,34H20V35H19zM21,34H22V35H21zM24,34H25V35H24zM27,34H28V35H27zM28,34H29V35H28zM29,34H30V35H29zM31,34H32V35H31zM36,34H37V35H36zM37,34H38V35H37zM38,34H39V35H38zM39,34H40V35H39zM40,34H41V35H40zM43,34H44V35H43zM4,35H5V36H4zM6,35H7V36H6zM9,35H10V36H9zM11,35H12V36H11zM12,35H13V36H12zM13,35H14V36H13zM15,35H16V36H15zM16,35H17V36H16zM18,35H19V36H18zM19,35H20V36H19zM25,35H26V36H25zM26,35H27V36H26zM27,35H28V36H27zM30,35H31V36H30zM32,35H33V36H32zM36,35H37V36H36zM37,35H38V36H37zM38,35H39V36H38zM41,35H42V36H41zM4,36H5V37H4zM7,36H8V37H7zM9,36H10V37H9zM10,36H11V37H10zM12,36H13V37H12zM13,36H14V37H13zM15,36H16V37H15zM16,36H17V37H16zM17,36H18V37H17zM18,36H19V37H18zM19,36H20V37H19zM20,36H21V37H20zM21,36H22V37H21zM26,36H27V37H26zM27,36H28V37H27zM28,36H29V37H28zM29,36H30V37H29zM30,36H31V37H30zM33,36H34V37H33zM35,36H36V37H35zM36,36H37V37H36zM37,36H38V37H37zM38,36H39V37H38zM39,36H40V37H39zM40,36H41V37H40zM42,36H43V37H42zM43,36H44V37H43zM44,36H45V37H44zM12,37H13V38H12zM13,37H14V38H13zM14,37H15V38H14zM17,37H18V38H17zM20,37H21V38H20zM22,37H23V38H22zM23,37H24V38H23zM24,37H25V38H24zM26,37H27V38H26zM27,37H28V38H27zM29,37H30V38H29zM32,37H33V38H32zM33,37H34V38H33zM36,37H37V38H36zM40,37H41V38H40zM41,37H42V38H41zM43,37H44V38H43zM44,37H45V38H44zM4,38H5V39H4zM5,38H6V39H5zM6,38H7V39H6zM7,38H8V39H7zM8,38H9V39H8zM9,38H10V39H9zM10,38H11V39H10zM13,38H14V39H13zM16,38H17V39H16zM17,38H18V39H17zM19,38H20V39H19zM20,38H21V39H20zM22,38H23V39H22zM24,38H25V39H24zM26,38H27V39H26zM28,38H29V39H28zM29,38H30V39H29zM30,38H31V39H30zM31,38H32V39H31zM35,38H36V39H35zM36,38H37V39H36zM38,38H39V39H38zM40,38H41V39H40zM41,38H42V39H41zM4,39H5V40H4zM10,39H11V40H10zM12,39H13V40H12zM14,39H15V40H14zM15,39H16V40H15zM16,39H17V40H16zM19,39H20V40H19zM20,39H21V40H20zM24,39H25V40H24zM28,39H29V40H28zM30,39H31V40H30zM31,39H32V40H31zM32,39H33V40H32zM36,39H37V40H36zM40,39H41V40H40zM43,39H44V40H43zM44,39H45V40H44zM4,40H5V41H4zM6,40H7V41H6zM7,40H8V41H7zM8,40H9V41H8zM10,40H11V41H10zM12,40H13V41H12zM13,40H14V41H13zM17,40H18V41H17zM20,40H21V41H20zM22,40H23V41H22zM25,40H26V41H25zM26,40H27V41H26zM27,40H28V41H27zM31,40H32V41H31zM32,40H33V41H32zM33,40H34V41H33zM36,40H37V41H36zM37,40H38V41H37zM38,40H39V41H38zM39,40H40V41H39zM40,40H41V41H40zM42,40H43V41H42zM4,41H5V42H4zM6,41H7V42H6zM7,41H8V42H7zM8,41H9V42H8zM10,41H11V42H10zM12,41H13V42H12zM14,41H15V42H14zM19,41H20V42H19zM23,41H24V42H23zM24,41H25V42H24zM27,41H28V42H27zM29,41H30V42H29zM32,41H33V42H32zM34,41H35V42H34zM35,41H36V42H35zM37,41H38V42H37zM39,41H40V42H39zM43,41H44V42H43zM44,41H45V42H44zM4,42H5V43H4zM6,42H7V43H6zM7,42H8V43H7zM8,42H9V43H8zM10,42H11V43H10zM12,42H13V43H12zM16,42H17V43H16zM18,42H19V43H18zM19,42H20V43H19zM24,42H25V43H24zM25,42H26V43H25zM28,42H29V43H28zM29,42H30V43H29zM30,42H31V43H30zM31,42H32V43H31zM32,42H33V43H32zM34,42H35V43H34zM36,42H37V43H36zM37,42H38V43H37zM38,42H39V43H38zM39,42H40V43H39zM40,42H41V43H40zM41,42H42V43H41zM42,42H43V43H42zM4,43H5V44H4zM10,43H11V44H10zM13,43H14V44H13zM15,43H16V44H15zM19,43H20V44H19zM20,43H21V44H20zM21,43H22V44H21zM24,43H25V44H24zM25,43H26V44H25zM26,43H27V44H26zM31,43H32V44H31zM34,43H35V44H34zM35,43H36V44H35zM36,43H37V44H36zM38,43H39V44H38zM40,43H41V44H40zM41,43H42V44H41zM43,43H44V44H43zM4,44H5V45H4zM5,44H6V45H5zM6,44H7V45H6zM7,44H8V45H7zM8,44H9V45H8zM9,44H10V45H9zM10,44H11V45H10zM12,44H13V45H12zM14,44H15V45H14zM17,44H18V45H17zM20,44H21V45H20zM21,44H22V45H21zM26,44H27V45H26zM27,44H28V45H27zM29,44H30V45H29zM30,44H31V45H30zM31,44H32V45H31zM32,44H33V45H32zM33,44H34V45H33zM35,44H36V45H35zM39,44H40V45H39zM40,44H41V45H40zM42,44H43V45H42z" id="qr-path" fill="#000000" fill-opacity="1" fill-rule="nonzero" stroke="none" /></svg>