<?xml version='1.0' encoding='UTF-8'?>
<svg width="49mm" height="49mm" version="1.1" viewBox="0 0 49 49" fill_color="#7A1E2B" back_color="#FFFFFF" xmlns="http://www.w3.org/2000/svg"><path d="M2,2H3V3H2zM3,2H4V3H3zM4,2H5V3H4zM5,2H6V3H5zM6,2H7V3H6zM7,2H8V3H7zM8,2H9V3H8zM10,2H11V3H10zM11,2H12V3H11zM12,2H13V3H12zM13,2H14V3H13zM14,2H15V3H14zM15,2H16V3H15zM16,2H17V3H16zM17,2H18V3H17zM22,2H23V3H22zM23,2H24V3H23zM25,2H26V3H25zM28,2H29V3H28zM32,2H33V3H32zM33,2H34V3H33zM38,2H39V3H38zM40,2H41V3H40zM41,2H42V3H41zM42,2H43V3H42zM43,2H44V3H43zM44,2H45V3H44zM45,2H46V3H45zM46,2H47V3H46zM2,3H3V4H2zM8,3H9V4H8zM12,3H13V4H12zM13,3H14V4H13zM14,3H15V4H14zM16,3H17V4H16zM17,3H18V4H17zM18,3H19V4H18zM21,3H22V4H21zM22,3H23V4H22zM23,3H24V4H23zM25,3H26V4H25zM26,3H27V4H26zM27,3H28V4H27zM29,3H30V4H29zM34,3H35V4H34zM35,3H36V4H35zM37,3H38V4H37zM40,3H41V4H40zM46,3H47V4H46zM2,4H3V5H2zM4,4H5V5H4zM5,4H6V5H5zM6,4H7V5H6zM8,4H9V5H8zM11,4H12V5H11zM12,4H13V5H12zM13,4H14V5H13zM17,4H18V5H17zM18,4H19V5H18zM22,4H23V5H22zM24,4H25V5H24zM27,4H28V5H27zM28,4H29V5H28zM29,4H30V5H29zM32,4H33V5H32zM34,4H35V5H34zM35,4H36V5H35zM37,4H38V5H37zM40,4H41V5H40zM42,4H43V5H42zM43,4H44V5H43zM44,4H45V5H44zM46,4H47V5H46zM2,5H3V6H2zM4,5H5V6H4zM5,5H6V6H5zM6,5H7V6H6zM8,5H9V6H8zM10,5H11V6H10zM11,5H12V6H11zM12,5H13V6H12zM14,5H15V6H14zM16,5H17V6H16zM17,5H18V6H17zM22,5H23V6H22zM23,5H24V6H23zM25,5H26V6H25zM26,5H27V6H26zM28,5H29V6H28zM30,5H31V6H30zM37,5H38V6H37zM38,5H39V6H38zM40,5H41V6H40zM42,5H43V6H42zM43,5H44V6H43zM44,5H45V6H44zM46,5H47V6H46zM2,6H3V7H2zM4,6H5V7H4zM5,6H6V7H5zM6,6H7V7H6zM8,6H9V7H8zM10,6H11V7H10zM12,6H13V7H12zM13,6H14V7H13zM15,6H16V7H15zM17,6H18V7H17zM18,6H19V7H18zM21,6H22V7H21zM22,6H23V7H22zM23,6H24V7H23zM24,6H25V7H24zM25,6H26V7H25zM26,6H27V7H26zM29,6H30V7H29zM31,6H32V7H31zM32,6H33V7H32zM33,6H34V7H33zM34,6H35V7H34zM35,6H36V7H35zM36,6H37V7H36zM37,6H38V7H37zM38,6H39V7H38zM40,6H41V7H40zM42,6H43V7H42zM43,6H44V7H43zM44,6H45V7H44zM46,6H47V7H46zM2,7H3V8H2zM8,7H9V8H8zM10,7H11V8H10zM12,7H13V8H12zM14,7H15V8H14zM15,7H16V8H15zM16,7H17V8H16zM17,7H18V8H17zM20,7H21V8H20zM21,7H22V8H21zM22,7H23V8H22zM26,7H27V8H26zM27,7H28V8H27zM28,7H29V8H28zM30,7H31V8H30zM31,7H32V8H31zM33,7H34V8H33zM40,7H41V8H40zM46,7H47V8H46zM2,8H3V9H2zM3,8H4V9H3zM4,8H5V9H4zM5,8H6V9H5zM6,8H7V9H6zM7,8H8V9H7zM8,8H9V9H8zM10,8H11V9H10zM12,8H13V9H12zM14,8H15V9H14zM16,8H17V9H16zM18,8H19V9H18zM20,8H21V9H20zM22,8H23V9H22zM24,8H25V9H24zM26,8H27V9H26zM28,8H29V9H28zM30,8H31V9H30zM32,8H33V9H32zM34,8H35V9H34zM36,8H37V9H36zM38,8H39V9H38zM40,8H41V9H40zM41,8H42V9H41zM42,8H43V9H42zM43,8H44V9H43zM44,8H45V9H44zM45,8H46V9H45zM46,8H47V9H46zM10,9H11V10H10zM11,9H12V10H11zM14,9H15V10H14zM16,9H17V10H16zM17,9H18V10H17zM18,9H19V10H18zM22,9H23V10H22zM26,9H27V10H26zM27,9H28V10H27zM29,9H30V10H29zM34,9H35V10H34zM36,9H37V10H36zM38,9H39V10H38zM2,10H3V11H2zM6,10H7V11H6zM8,10H9V11H8zM9,10H10V11H9zM10,10H11V11H10zM11,10H12V11H11zM14,10H15V11H14zM15,10H16V11H15zM16,10H17V11H16zM17,10H18V11H17zM20,10H21V11H20zM22,10H23V11H22zM23,10H24V11H23zM24,10H25V11H24zM25,10H26V11H25zM26,10H27V11H26zM28,10H29V11H28zM29,10H30V11H29zM32,10H33V11H32zM34,10H35V11H34zM39,10H40V11H39zM40,10H41V11H40zM41,10H42V11H41zM42,10H43V11H42zM43,10H44V11H43zM46,10H47V11H46zM6,11H7V12H6zM10,11H11V12H10zM11,11H12V12H11zM13,11H14V12H13zM14,11H15V12H14zM15,11H16V12H15zM16,11H17V12H16zM17,11H18V12H17zM19,11H20V12H19zM20,11H21V12H20zM21,11H22V12H21zM22,11H23V12H22zM23,11H24V12H23zM24,11H25V12H24zM26,11H27V12H26zM28,11H29V12H28zM31,11H32V12H31zM32,11H33V12H32zM34,11H35V12H34zM35,11H36V12H35zM37,11H38V12H37zM38,11H39V12H38zM39,11H40V12H39zM40,11H41V12H40zM41,11H42V12H41zM42,11H43V12H42zM43,11H44V12H43zM3,12H4V13H3zM6,12H7V13H6zM8,12H9V13H8zM9,12H10V13H9zM11,12H12V13H11zM12,12H13V13H12zM15,12H16V13H15zM16,12H17V13H16zM17,12H18V13H17zM18,12H19V13H18zM20,12H21V13H20zM24,12H25V13H24zM26,12H27V13H26zM27,12H28V13H27zM28,12H29V13H28zM30,12H31V13H30zM31,12H32V13H31zM32,12H33V13H32zM33,12H34V13H33zM34,12H35V13H34zM39,12H40V13H39zM40,12H41V13H40zM41,12H42V13H41zM42,12H43V13H42zM44,12H45V13H44zM45,12H46V13H45zM3,13H4V14H3zM5,13H6V14H5zM6,13H7V14H6zM9,13H10V14H9zM11,13H12V14H11zM13,13H14V14H13zM17,13H18V14H17zM19,13H20V14H19zM20,13H21V14H20zM21,13H22V14H21zM22,13H23V14H22zM24,13H25V14H24zM25,13H26V14H25zM26,13H27V14H26zM27,13H28V14H27zM28,13H29V14H28zM30,13H31V14H30zM32,13H33V14H32zM34,13H35V14H34zM35,13H36V14H35zM36,13H37V14H36zM38,13H39V14H38zM39,13H40V14H39zM41,13H42V14H41zM2,14H3V15H2zM3,14H4V15H3zM4,14H5V15H4zM6,14H7V15H6zM7,14H8V15H7zM8,14H9V15H8zM10,14H11V15H10zM11,14H12V15H11zM12,14H13V15H12zM16,14H17V15H16zM17,14H18V15H17zM18,14H19V15H18zM19,14H20V15H19zM20,14H21V15H20zM21,14H22V15H21zM24,14H25V15H24zM25,14H26V15H25zM27,14H28V15H27zM31,14H32V15H31zM33,14H34V15H33zM34,14H35V15H34zM37,14H38V15H37zM39,14H40V15H39zM40,14H41V15H40zM41,14H42V15H41zM43,14H44V15H43zM45,14H46V15H45zM2,15H3V16H2zM3,15H4V16H3zM5,15H6V16H5zM9,15H10V16H9zM11,15H12V16H11zM12,15H13V16H12zM13,15H14V16H13zM14,15H15V16H14zM15,15H16V16H15zM16,15H17V16H16zM28,15H29V16H28zM29,15H30V16H29zM32,15H33V16H32zM35,15H36V16H35zM37,15H38V16H37zM38,15H39V16H38zM39,15H40V16H39zM40,15H41V16H40zM41,15H42V16H41zM42,15H43V16H42zM43,15H44V16H43zM45,15H46V16H45zM2,16H3V17H2zM4,16H5V17H4zM5,16H6V17H5zM6,16H7V17H6zM7,16H8V17H7zM8,16H9V17H8zM9,16H10V17H9zM10,16H11V17H10zM13,16H14V17H13zM17,16H18V17H17zM18,16H19V17H18zM19,16H20V17H19zM22,16H23V17H22zM24,16H25V17H24zM25,16H26V17H25zM28,16H29V17H28zM29,16H30V17H29zM30,16H31V17H30zM31,16H32V17H31zM37,16H38V17H37zM40,16H41V17H40zM41,16H42V17H41zM45,16H46V17H45zM3,17H4V18H3zM6,17H7V18H6zM9,17H10V18H9zM10,17H11V18H10zM12,17H13V18H12zM13,17H14V18H13zM14,17H15V18H14zM17,17H18V18H17zM18,17H19V18H18zM21,17H22V18H21zM23,17H24V18H23zM24,17H25V18H24zM25,17H26V18H25zM27,17H28V18H27zM28,17H29V18H28zM29,17H30V18H29zM32,17H33V18H32zM33,17H34V18H33zM34,17H35V18H34zM35,17H36V18H35zM39,17H40V18H39zM40,17H41V18H40zM41,17H42V18H41zM45,17H46V18H45zM3,18H4V19H3zM4,18H5V19H4zM5,18H6V19H5zM8,18H9V19H8zM9,18H10V19H9zM10,18H11V19H10zM11,18H12V19H11zM13,18H14V19H13zM14,18H15V19H14zM18,18H19V19H18zM19,18H20V19H19zM20,18H21V19H20zM21,18H22V19H21zM22,18H23V19H22zM23,18H24V19H23zM29,18H30V19H29zM31,18H32V19H31zM32,18H33V19H32zM34,18H35V19H34zM37,18H38V19H37zM40,18H41V19H40zM5,19H6V20H5zM6,19H7V20H6zM9,19H10V20H9zM10,19H11V20H10zM12,19H13V20H12zM14,19H15V20H14zM21,19H22V20H21zM23,19H24V20H23zM25,19H26V20H25zM28,19H29V20H28zM29,19H30V20H29zM31,19H32V20H31zM32,19H33V20H32zM34,19H35V20H34zM35,19H36V20H35zM37,19H38V20H37zM38,19H39V20H38zM40,19H41V20H40zM45,19H46V20H45zM2,20H3V21H2zM6,20H7V21H6zM7,20H8V21H7zM8,20H9V21H8zM10,20H11V21H10zM15,20H16V21H15zM16,20H17V21H16zM18,20H19V21H18zM22,20H23V21H22zM23,20H24V21H23zM24,20H25V21H24zM28,20H29V21H28zM32,20H33V21H32zM33,20H34V21H33zM35,20H36V21H35zM38,20H39V21H38zM39,20H40V21H39zM40,20H41V21H40zM41,20H42V21H41zM42,20H43V21H42zM43,20H44V21H43zM2,21H3V22H2zM3,21H4V22H3zM9,21H10V22H9zM10,21H11V22H10zM13,21H14V22H13zM15,21H16V22H15zM16,21H17V22H16zM18,21H19V22H18zM21,21H22V22H21zM24,21H25V22H24zM25,21H26V22H25zM26,21H27V22H26zM29,21H30V22H29zM31,21H32V22H31zM34,21H35V22H34zM36,21H37V22H36zM38,21H39V22H38zM40,21H41V22H40zM41,21H42V22H41zM2,22H3V23H2zM3,22H4V23H3zM6,22H7V23H6zM7,22H8V23H7zM8,22H9V23H8zM9,22H10V23H9zM10,22H11V23H10zM15,22H16V23H15zM16,22H17V23H16zM18,22H19V23H18zM19,22H20V23H19zM20,22H21V23H20zM21,22H22V23H21zM22,22H23V23H22zM23,22H24V23H23zM24,22H25V23H24zM25,22H26V23H25zM26,22H27V23H26zM28,22H29V23H28zM29,22H30V23H29zM31,22H32V23H31zM32,22H33V23H32zM34,22H35V23H34zM38,22H39V23H38zM39,22H40V23H39zM40,22H41V23H40zM41,22H42V23H41zM42,22H43V23H42zM45,22H46V23H45zM2,23H3V24H2zM3,23H4V24H3zM6,23H7V24H6zM10,23H11V24H10zM11,23H12V24H11zM12,23H13V24H12zM13,23H14V24H13zM14,23H15V24H14zM15,23H16V24H15zM17,23H18V24H17zM18,23H19V24H18zM19,23H20V24H19zM21,23H22V24H21zM22,23H23V24H22zM26,23H27V24H26zM27,23H28V24H27zM28,23H29V24H28zM31,23H32V24H31zM32,23H33V24H32zM33,23H34V24H33zM35,23H36V24H35zM37,23H38V24H37zM38,23H39V24H38zM42,23H43V24H42zM43,23H44V24H43zM44,23H45V24H44zM45,23H46V24H45zM5,24H6V25H5zM6,24H7V25H6zM8,24H9V25H8zM10,24H11V25H10zM12,24H13V25H12zM16,24H17V25H16zM17,24H18V25H17zM20,24H21V25H20zM21,24H22V25H21zM22,24H23V25H22zM24,24H25V25H24zM26,24H27V25H26zM27,24H28V25H27zM32,24H33V25H32zM33,24H34V25H33zM34,24H35V25H34zM35,24H36V25H35zM37,24H38V25H37zM38,24H39V25H38zM40,24H41V25H40zM42,24H43V25H42zM43,24H44V25H43zM3,25H4V26H3zM5,25H6V26H5zM6,25H7V26H6zM10,25H11V26H10zM11,25H12V26H11zM12,25H13V26H12zM13,25H14V26H13zM14,25H15V26H14zM16,25H17V26H16zM19,25H20V26H19zM20,25H21V26H20zM22,25H23V26H22zM26,25H27V26H26zM27,25H28V26H27zM29,25H30V26H29zM32,25H33V26H32zM34,25H35V26H34zM35,25H36V26H35zM36,25H37V26H36zM37,25H38V26H37zM38,25H39V26H38zM42,25H43V26H42zM45,25H46V26H45zM46,25H47V26H46zM2,26H3V27H2zM4,26H5V27H4zM6,26H7V27H6zM7,26H8V27H7zM8,26H9V27H8zM9,26H10V27H9zM10,26H11V27H10zM14,26H15V27H14zM15,26H16V27H15zM17,26H18V27H17zM18,26H19V27H18zM19,26H20V27H19zM21,26H22V27H21zM22,26H23V27H22zM23,26H24V27H23zM24,26H25V27H24zM25,26H26V27H25zM26,26H27V27H26zM27,26H28V27H27zM29,26H30V27H29zM31,26H32V27H31zM33,26H34V27H33zM34,26H35V27H34zM35,26H36V27H35zM36,26H37V27H36zM38,26H39V27H38zM39,26H40V27H39zM40,26H41V27H40zM41,26H42V27H41zM42,26H43V27H42zM43,26H44V27H43zM4,27H5V28H4zM7,27H8V28H7zM10,27H11V28H10zM12,27H13V28H12zM13,27H14V28H13zM16,27H17V28H16zM18,27H19V28H18zM20,27H21V28H20zM24,27H25V28H24zM25,27H26V28H25zM26,27H27V28H26zM27,27H28V28H27zM28,27H29V28H28zM29,27H30V28H29zM31,27H32V28H31zM32,27H33V28H32zM33,27H34V28H33zM34,27H35V28H34zM35,27H36V28H35zM38,27H39V28H38zM40,27H41V28H40zM41,27H42V28H41zM43,27H44V28H43zM44,27H45V28H44zM45,27H46V28H45zM2,28H3V29H2zM3,28H4V29H3zM8,28H9V29H8zM9,28H10V29H9zM12,28H13V29H12zM17,28H18V29H17zM22,28H23V29H22zM23,28H24V29H23zM24,28H25V29H24zM25,28H26V29H25zM26,28H27V29H26zM28,28H29V29H28zM30,28H31V29H30zM31,28H32V29H31zM32,28H33V29H32zM33,28H34V29H33zM39,28H40V29H39zM41,28H42V29H41zM45,28H46V29H45zM5,29H6V30H5zM6,29H7V30H6zM9,29H10V30H9zM11,29H12V30H11zM12,29H13V30H12zM14,29H15V30H14zM17,29H18V30H17zM22,29H23V30H22zM28,29H29V30H28zM29,29H30V30H29zM30,29H31V30H30zM32,29H33V30H32zM34,29H35V30H34zM36,29H37V30H36zM40,29H41V30H40zM45,29H46V30H45zM46,29H47V30H46zM2,30H3V31H2zM4,30H5V31H4zM8,30H9V31H8zM9,30H10V31H9zM12,30H13V31H12zM13,30H14V31H13zM15,30H16V31H15zM19,30H20V31H19zM20,30H21V31H20zM21,30H22V31H21zM25,30H26V31H25zM27,30H28V31H27zM28,30H29V31H28zM29,30H30V31H29zM30,30H31V31H30zM34,30H35V31H34zM36,30H37V31H36zM39,30H40V31H39zM41,30H42V31H41zM42,30H43V31H42zM45,30H46V31H45zM3,31H4V32H3zM5,31H6V32H5zM7,31H8V32H7zM11,31H12V32H11zM12,31H13V32H12zM13,31H14V32H13zM15,31H16V32H15zM16,31H17V32H16zM18,31H19V32H18zM19,31H20V32H19zM21,31H22V32H21zM22,31H23V32H22zM24,31H25V32H24zM25,31H26V32H25zM26,31H27V32H26zM27,31H28V32H27zM28,31H29V32H28zM30,31H31V32H30zM31,31H32V32H31zM35,31H36V32H35zM38,31H39V32H38zM39,31H40V32H39zM41,31H42V32H41zM43,31H44V32H43zM45,31H46V32H45zM4,32H5V33H4zM5,32H6V33H5zM7,32H8V33H7zM8,32H9V33H8zM9,32H10V33H9zM11,32H12V33H11zM12,32H13V33H12zM15,32H16V33H15zM18,32H19V33H18zM19,32H20V33H19zM20,32H21V33H20zM22,32H23V33H22zM28,32H29V33H28zM31,32H32V33H31zM35,32H36V33H35zM37,32H38V33H37zM38,32H39V33H38zM41,32H42V33H41zM42,32H43V33H42zM43,32H44V33H43zM3,33H4V34H3zM4,33H5V34H4zM6,33H7V34H6zM9,33H10V34H9zM10,33H11V34H10zM11,33H12V34H11zM12,33H13V34H12zM15,33H16V34H15zM17,33H18V34H17zM18,33H19V34H18zM20,33H21V34H20zM23,33H24V34H23zM25,33H26V34H25zM29,33H30V34H29zM34,33H35V34H34zM38,33H39V34H38zM40,33H41V34H40zM41,33H42V34H41zM42,33H43V34H42zM2,34H3V35H2zM5,34H6V35H5zM6,34H7V35H6zM8,34H9V35H8zM9,34H10V35H9zM10,34H11V35H10zM12,34H13V35H12zM14,34H15V35H14zM15,34H16V35H15zM16,34H17V35H16zM18,34H19V35H18zM21,34H22V35H21zM22,34H23V35H22zM23,34H24V35H23zM25,34H26V35H25zM26,34H27V35H26zM28,34H29V35H28zM32,34H33V35H32zM34,34H35V35H34zM35,34H36V35H35zM36,34H37V35H36zM38,34H39V35H38zM42,34H43V35H42zM45,34H46V35H45zM46,34H47V35H46zM2,35H3V36H2zM4,35H5V36H4zM5,35H6V36H5zM9,35H10V36H9zM11,35H12V36H11zM13,35H14V36H13zM14,35H15V36H14zM17,35H18V36H17zM18,35H19V36H18zM19,35H20V36H19zM24,35H25V36H24zM26,35H27V36H26zM28,35H29V36H28zM29,35H30V36H29zM30,35H31V36H30zM31,35H32V36H31zM32,35H33V36H32zM33,35H34V36H33zM34,35H35V36H34zM35,35H36V36H35zM40,35H41V36H40zM41,35H42V36H41zM43,35H44V36H43zM45,35H46V36H45zM6,36H7V37H6zM8,36H9V37H8zM12,36H13V37H12zM14,36H15V37H14zM16,36H17V37H16zM22,36H23V37H22zM25,36H26V37H25zM26,36H27V37H26zM28,36H29V37H28zM30,36H31V37H30zM32,36H33V37H32zM33,36H34V37H33zM35,36H36V37H35zM37,36H38V37H37zM39,36H40V37H39zM42,36H43V37H42zM44,36H45V37H44zM45,36H46V37H45zM3,37H4V38H3zM4,37H5V38H4zM5,37H6V38H5zM6,37H7V38H6zM9,37H10V38H9zM10,37H11V38H10zM16,37H17V38H16zM17,37H18V38H17zM18,37H19V38H18zM20,37H21V38H20zM21,37H22V38H21zM22,37H23V38H22zM23,37H24V38H23zM27,37H28V38H27zM28,37H29V38H28zM29,37H30V38H29zM31,37H32V38H31zM34,37H35V38H34zM39,37H40V38H39zM40,37H41V38H40zM43,37H44V38H43zM46,37H47V38H46zM2,38H3V39H2zM5,38H6V39H5zM6,38H7V39H6zM8,38H9V39H8zM9,38H10V39H9zM12,38H13V39H12zM15,38H16V39H15zM17,38H18V39H17zM18,38H19V39H18zM21,38H22V39H21zM22,38H23V39H22zM23,38H24V39H23zM24,38H25V39H24zM25,38H26V39H25zM26,38H27V39H26zM27,38H28V39H27zM29,38H30V39H29zM34,38H35V39H34zM35,38H36V39H35zM36,38H37V39H36zM38,38H39V39H38zM39,38H40V39H39zM40,38H41V39H40zM41,38H42V39H41zM42,38H43V39H42zM10,39H11V40H10zM11,39H12V40H11zM14,39H15V40H14zM17,39H18V40H17zM19,39H20V40H19zM22,39H23V40H22zM26,39H27V40H26zM29,39H30V40H29zM30,39H31V40H30zM32,39H33V40H32zM34,39H35V40H34zM35,39H36V40H35zM37,39H38V40H37zM38,39H39V40H38zM42,39H43V40H42zM43,39H44V40H43zM44,39H45V40H44zM45,39H46V40H45zM2,40H3V41H2zM3,40H4V41H3zM4,40H5V41H4zM5,40H6V41H5zM6,40H7V41H6zM7,40H8V41H7zM8,40H9V41H8zM10,40H11V41H10zM11,40H12V41H11zM12,40H13V41H12zM13,40H14V41H13zM14,40H15V41H14zM19,40H20V41H19zM20,40H21V41H20zM21,40H22V41H21zM22,40H23V41H22zM24,40H25V41H24zM26,40H27V41H26zM31,40H32V41H31zM32,40H33V41H32zM35,40H36V41H35zM38,40H39V41H38zM40,40H41V41H40zM42,40H43V41H42zM43,40H44V41H43zM45,40H46V41H45zM2,41H3V42H2zM8,41H9V42H8zM11,41H12V42H11zM13,41H14V42H13zM14,41H15V42H14zM15,41H16V42H15zM16,41H17V42H16zM19,41H20V42H19zM21,41H22V42H21zM22,41H23V42H22zM26,41H27V42H26zM27,41H28V42H27zM28,41H29V42H28zM32,41H33V42H32zM33,41H34V42H33zM34,41H35V42H34zM36,41H37V42H36zM38,41H39V42H38zM42,41H43V42H42zM45,41H46V42H45zM2,42H3V43H2zM4,42H5V43H4zM5,42H6V43H5zM6,42H7V43H6zM8,42H9V43H8zM10,42H11V43H10zM11,42H12V43H11zM14,42H15V43H14zM15,42H16V43H15zM16,42H17V43H16zM19,42H20V43H19zM21,42H22V43H21zM22,42H23V43H22zM23,42H24V43H23zM24,42H25V43H24zM25,42H26V43H25zM26,42H27V43H26zM27,42H28V43H27zM29,42H30V43H29zM34,42H35V43H34zM35,42H36V43H35zM37,42H38V43H37zM38,42H39V43H38zM39,42H40V43H39zM40,42H41V43H40zM41,42H42V43H41zM42,42H43V43H42zM43,42H44V43H43zM45,42H46V43H45zM2,43H3V44H2zM4,43H5V44H4zM5,43H6V44H5zM6,43H7V44H6zM8,43H9V44H8zM12,43H13V44H12zM15,43H16V44H15zM16,43H17V44H16zM18,43H19V44H18zM19,43H20V44H19zM20,43H21V44H20zM23,43H24V44H23zM24,43H25V44H24zM28,43H29V44H28zM29,43H30V44H29zM30,43H31V44H30zM31,43H32V44H31zM32,43H33V44H32zM34,43H35V44H34zM35,43H36V44H35zM40,43H41V44H40zM41,43H42V44H41zM42,43H43V44H42zM44,43H45V44H44zM45,43H46V44H45zM2,44H3V45H2zM4,44H5V45H4zM5,44H6V45H5zM6,44H7V45H6zM8,44H9V45H8zM12,44H13V45H12zM13,44H14V45H13zM15,44H16V45H15zM17,44H18V45H17zM18,44H19V45H18zM20,44H21V45H20zM21,44H22V45H21zM22,44H23V45H22zM23,44H24V45H23zM24,44H25V45H24zM26,44H27V45H26zM28,44H29V45H28zM29,44H30V45H29zM30,44H31V45H30zM31,44H32V45H31zM32,44H33V45H32zM35,44H36V45H35zM40,44H41V45H40zM42,44H43V45H42zM43,44H44V45H43zM44,44H45V45H44zM45,44H46V45H45zM2,45H3V46H2zM8,45H9V46H8zM11,45H12V46H11zM12,45H13V46H12zM13,45H14V46H13zM15,45H16V46H15zM16,45H17V46H16zM21,45H22V46H21zM22,45H23V46H22zM23,45H24V46H23zM26,45H27V46H26zM27,45H28V46H27zM28,45H29V46H28zM30,45H31V46H30zM31,45H32V46H31zM34,45H35V46H34zM35,45H36V46H35zM37,45H38V46H37zM38,45H39V46H38zM39,45H40V46H39zM42,45H43V46H42zM2,46H3V47H2zM3,46H4V47H3zM4,46H5V47H4zM5,46H6V47H5zM6,46H7V47H6zM7,46H8V47H7zM8,46H9V47H8zM10,46H11V47H10zM11,46H12V47H11zM12,46H13V47H12zM13,46H14V47H13zM14,46H15V47H14zM16,46H17V47H16zM18,46H19V47H18zM19,46H20V47H19zM22,46H23V47H22zM25,46H26V47H25zM26,46H27V47H26zM28,46H29V47H28zM31,46H32V47H31zM32,46H33V47H32zM34,46H35V47H34zM37,46H38V47H37zM39,46H40V47H39zM46,46H47V47H46z" id="qr-path" fill="#000000" fill-opacity="1" fill-rule="nonzero" stroke="none" /></svg>