<?xml version='1.0' encoding='UTF-8'?>
<svg width="53mm" height="53mm" version="1.1" viewBox="0 0 53 53" fill_color="#7A1E2B" back_color="#FFFFFF" xmlns="http://www.w3.org/2000/svg"><path d="M2,2H3V3H2zM3,2H4V3H3zM4,2H5V3H4zM5,2H6V3H5zM6,2H7V3H6zM7,2H8V3H7zM8,2H9V3H8zM10,2H11V3H10zM11,2H12V3H11zM14,2H15V3H14zM18,2H19V3H18zM21,2H22V3H21zM23,2H24V3H23zM25,2H26V3H25zM30,2H31V3H30zM31,2H32V3H31zM33,2H34V3H33zM35,2H36V3H35zM36,2H37V3H36zM42,2H43V3H42zM44,2H45V3H44zM45,2H46V3H45zM46,2H47V3H46zM47,2H48V3H47zM48,2H49V3H48zM49,2H50V3H49zM50,2H51V3H50zM2,3H3V4H2zM8,3H9V4H8zM12,3H13V4H12zM14,3H15V4H14zM15,3H16V4H15zM16,3H17V4H16zM17,3H18V4H17zM19,3H20V4H19zM22,3H23V4H22zM23,3H24V4H23zM24,3H25V4H24zM25,3H26V4H25zM27,3H28V4H27zM28,3H29V4H28zM29,3H30V4H29zM30,3H31V4H30zM32,3H33V4H32zM37,3H38V4H37zM40,3H41V4H40zM41,3H42V4H41zM42,3H43V4H42zM44,3H45V4H44zM50,3H51V4H50zM2,4H3V5H2zM4,4H5V5H4zM5,4H6V5H5zM6,4H7V5H6zM8,4H9V5H8zM12,4H13V5H12zM13,4H14V5H13zM16,4H17V5H16zM19,4H20V5H19zM22,4H23V5H22zM25,4H26V5H25zM32,4H33V5H32zM33,4H34V5H33zM34,4H35V5H34zM36,4H37V5H36zM38,4H39V5H38zM41,4H42V5H41zM42,4H43V5H42zM44,4H45V5H44zM46,4H47V5H46zM47,4H48V5H47zM48,4H49V5H48zM50,4H51V5H50zM2,5H3V6H2zM4,5H5V6H4zM5,5H6V6H5zM6,5H7V6H6zM8,5H9V6H8zM10,5H11V6H10zM11,5H12V6H11zM12,5H13V6H12zM14,5H15V6H14zM15,5H16V6H15zM18,5H19V6H18zM19,5H20V6H19zM24,5H25V6H24zM26,5H27V6H26zM28,5H29V6H28zM30,5H31V6H30zM31,5H32V6H31zM32,5H33V6H32zM33,5H34V6H33zM35,5H36V6H35zM36,5H37V6H36zM39,5H40V6H39zM41,5H42V6H41zM44,5H45V6H44zM46,5H47V6H46zM47,5H48V6H47zM48,5H49V6H48zM50,5H51V6H50zM2,6H3V7H2zM4,6H5V7H4zM5,6H6V7H5zM6,6H7V7H6zM8,6H9V7H8zM10,6H11V7H10zM12,6H13V7H12zM13,6H14V7H13zM18,6H19V7H18zM19,6H20V7H19zM20,6H21V7H20zM24,6H25V7H24zM25,6H26V7H25zM26,6H27V7H26zM27,6H28V7H27zM28,6H29V7H28zM29,6H30V7H29zM31,6H32V7H31zM32,6H33V7H32zM35,6H36V7H35zM37,6H38V7H37zM38,6H39V7H38zM44,6H45V7H44zM46,6H47V7H46zM47,6H48V7H47zM48,6H49V7H48zM50,6H51V7H50zM2,7H3V8H2zM8,7H9V8H8zM10,7H11V8H10zM12,7H13V8H12zM13,7H14V8H13zM15,7H16V8H15zM17,7H18V8H17zM18,7H19V8H18zM20,7H21V8H20zM21,7H22V8H21zM23,7H24V8H23zM24,7H25V8H24zM28,7H29V8H28zM29,7H30V8H29zM30,7H31V8H30zM35,7H36V8H35zM36,7H37V8H36zM37,7H38V8H37zM40,7H41V8H40zM44,7H45V8H44zM50,7H51V8H50zM2,8H3V9H2zM3,8H4V9H3zM4,8H5V9H4zM5,8H6V9H5zM6,8H7V9H6zM7,8H8V9H7zM8,8H9V9H8zM10,8H11V9H10zM12,8H13V9H12zM14,8H15V9H14zM16,8H17V9H16zM18,8H19V9H18zM20,8H21V9H20zM22,8H23V9H22zM24,8H25V9H24zM26,8H27V9H26zM28,8H29V9H28zM30,8H31V9H30zM32,8H33V9H32zM34,8H35V9H34zM36,8H37V9H36zM38,8H39V9H38zM40,8H41V9H40zM42,8H43V9H42zM44,8H45V9H44zM45,8H46V9H45zM46,8H47V9H46zM47,8H48V9H47zM48,8H49V9H48zM49,8H50V9H49zM50,8H51V9H50zM10,9H11V10H10zM12,9H13V10H12zM13,9H14V10H13zM14,9H15V10H14zM18,9H19V10H18zM21,9H22V10H21zM22,9H23V10H22zM24,9H25V10H24zM28,9H29V10H28zM31,9H32V10H31zM34,9H35V10H34zM36,9H37V10H36zM38,9H39V10H38zM39,9H40V10H39zM40,9H41V10H40zM41,9H42V10H41zM42,9H43V10H42zM2,10H3V11H2zM6,10H7V11H6zM8,10H9V11H8zM9,10H10V11H9zM10,10H11V11H10zM14,10H15V11H14zM15,10H16V11H15zM16,10H17V11H16zM17,10H18V11H17zM18,10H19V11H18zM20,10H21V11H20zM21,10H22V11H21zM24,10H25V11H24zM25,10H26V11H25zM26,10H27V11H26zM27,10H28V11H27zM28,10H29V11H28zM29,10H30V11H29zM31,10H32V11H31zM32,10H33V11H32zM34,10H35V11H34zM36,10H37V11H36zM37,10H38V11H37zM38,10H39V11H38zM41,10H42V11H41zM42,10H43V11H42zM43,10H44V11H43zM44,10H45V11H44zM45,10H46V11H45zM46,10H47V11H46zM47,10H48V11H47zM50,10H51V11H50zM2,11H3V12H2zM4,11H5V12H4zM5,11H6V12H5zM6,11H7V12H6zM7,11H8V12H7zM11,11H12V12H11zM12,11H13V12H12zM14,11H15V12H14zM20,11H21V12H20zM22,11H23V12H22zM24,11H25V12H24zM27,11H28V12H27zM28,11H29V12H28zM29,11H30V12H29zM31,11H32V12H31zM32,11H33V12H32zM33,11H34V12H33zM34,11H35V12H34zM35,11H36V12H35zM37,11H38V12H37zM38,11H39V12H38zM40,11H41V12H40zM41,11H42V12H41zM43,11H44V12H43zM44,11H45V12H44zM46,11H47V12H46zM47,11H48V12H47zM48,11H49V12H48zM49,11H50V12H49zM2,12H3V13H2zM3,12H4V13H3zM6,12H7V13H6zM8,12H9V13H8zM11,12H12V13H11zM14,12H15V13H14zM16,12H17V13H16zM17,12H18V13H17zM18,12H19V13H18zM19,12H20V13H19zM21,12H22V13H21zM24,12H25V13H24zM26,12H27V13H26zM28,12H29V13H28zM29,12H30V13H29zM30,12H31V13H30zM31,12H32V13H31zM32,12H33V13H32zM34,12H35V13H34zM38,12H39V13H38zM40,12H41V13H40zM42,12H43V13H42zM44,12H45V13H44zM45,12H46V13H45zM46,12H47V13H46zM2,13H3V14H2zM3,13H4V14H3zM4,13H5V14H4zM6,13H7V14H6zM7,13H8V14H7zM9,13H10V14H9zM11,13H12V14H11zM14,13H15V14H14zM16,13H17V14H16zM18,13H19V14H18zM20,13H21V14H20zM22,13H23V14H22zM24,13H25V14H24zM25,13H26V14H25zM26,13H27V14H26zM29,13H30V14H29zM31,13H32V14H31zM34,13H35V14H34zM36,13H37V14H36zM38,13H39V14H38zM39,13H40V14H39zM40,13H41V14H40zM43,13H44V14H43zM44,13H45V14H44zM45,13H46V14H45zM46,13H47V14H46zM48,13H49V14H48zM49,13H50V14H49zM2,14H3V15H2zM3,14H4V15H3zM4,14H5V15H4zM8,14H9V15H8zM11,14H12V15H11zM14,14H15V15H14zM15,14H16V15H15zM16,14H17V15H16zM17,14H18V15H17zM20,14H21V15H20zM22,14H23V15H22zM24,14H25V15H24zM25,14H26V15H25zM26,14H27V15H26zM27,14H28V15H27zM28,14H29V15H28zM29,14H30V15H29zM32,14H33V15H32zM33,14H34V15H33zM34,14H35V15H34zM37,14H38V15H37zM38,14H39V15H38zM42,14H43V15H42zM46,14H47V15H46zM48,14H49V15H48zM49,14H50V15H49zM50,14H51V15H50zM2,15H3V16H2zM6,15H7V16H6zM7,15H8V16H7zM10,15H11V16H10zM11,15H12V16H11zM12,15H13V16H12zM14,15H15V16H14zM16,15H17V16H16zM17,15H18V16H17zM18,15H19V16H18zM20,15H21V16H20zM21,15H22V16H21zM22,15H23V16H22zM26,15H27V16H26zM27,15H28V16H27zM28,15H29V16H28zM29,15H30V16H29zM32,15H33V16H32zM33,15H34V16H33zM35,15H36V16H35zM37,15H38V16H37zM38,15H39V16H38zM39,15H40V16H39zM40,15H41V16H40zM41,15H42V16H41zM44,15H45V16H44zM47,15H48V16H47zM48,15H49V16H48zM49,15H50V16H49zM2,16H3V17H2zM3,16H4V17H3zM4,16H5V17H4zM8,16H9V17H8zM9,16H10V17H9zM11,16H12V17H11zM12,16H13V17H12zM13,16H14V17H13zM16,16H17V17H16zM18,16H19V17H18zM20,16H21V17H20zM21,16H22V17H21zM24,16H25V17H24zM26,16H27V17H26zM28,16H29V17H28zM30,16H31V17H30zM31,16H32V17H31zM32,16H33V17H32zM33,16H34V17H33zM35,16H36V17H35zM38,16H39V17H38zM40,16H41V17H40zM41,16H42V17H41zM42,16H43V17H42zM43,16H44V17H43zM44,16H45V17H44zM48,16H49V17H48zM2,17H3V18H2zM6,17H7V18H6zM7,17H8V18H7zM12,17H13V18H12zM14,17H15V18H14zM15,17H16V18H15zM18,17H19V18H18zM20,17H21V18H20zM23,17H24V18H23zM24,17H25V18H24zM25,17H26V18H25zM26,17H27V18H26zM28,17H29V18H28zM30,17H31V18H30zM31,17H32V18H31zM33,17H34V18H33zM35,17H36V18H35zM36,17H37V18H36zM40,17H41V18H40zM42,17H43V18H42zM43,17H44V18H43zM46,17H47V18H46zM48,17H49V18H48zM49,17H50V18H49zM2,18H3V19H2zM3,18H4V19H3zM4,18H5V19H4zM5,18H6V19H5zM8,18H9V19H8zM9,18H10V19H9zM10,18H11V19H10zM12,18H13V19H12zM13,18H14V19H13zM14,18H15V19H14zM16,18H17V19H16zM20,18H21V19H20zM21,18H22V19H21zM23,18H24V19H23zM26,18H27V19H26zM27,18H28V19H27zM28,18H29V19H28zM31,18H32V19H31zM32,18H33V19H32zM33,18H34V19H33zM34,18H35V19H34zM35,18H36V19H35zM38,18H39V19H38zM39,18H40V19H39zM40,18H41V19H40zM42,18H43V19H42zM43,18H44V19H43zM46,18H47V19H46zM48,18H49V19H48zM2,19H3V20H2zM6,19H7V20H6zM7,19H8V20H7zM10,19H11V20H10zM13,19H14V20H13zM15,19H16V20H15zM16,19H17V20H16zM18,19H19V20H18zM20,19H21V20H20zM22,19H23V20H22zM23,19H24V20H23zM25,19H26V20H25zM26,19H27V20H26zM28,19H29V20H28zM29,19H30V20H29zM32,19H33V20H32zM34,19H35V20H34zM37,19H38V20H37zM38,19H39V20H38zM40,19H41V20H40zM44,19H45V20H44zM47,19H48V20H47zM2,20H3V21H2zM4,20H5V21H4zM7,20H8V21H7zM8,20H9V21H8zM9,20H10V21H9zM10,20H11V21H10zM11,20H12V21H11zM24,20H25V21H24zM25,20H26V21H25zM28,20H29V21H28zM29,20H30V21H29zM30,20H31V21H30zM36,20H37V21H36zM37,20H38V21H37zM40,20H41V21H40zM41,20H42V21H41zM43,20H44V21H43zM44,20H45V21H44zM47,20H48V21H47zM48,20H49V21H48zM49,20H50V21H49zM3,21H4V22H3zM4,21H5V22H4zM5,21H6V22H5zM6,21H7V22H6zM9,21H10V22H9zM10,21H11V22H10zM11,21H12V22H11zM13,21H14V22H13zM15,21H16V22H15zM17,21H18V22H17zM18,21H19V22H18zM22,21H23V22H22zM24,21H25V22H24zM25,21H26V22H25zM26,21H27V22H26zM29,21H30V22H29zM34,21H35V22H34zM35,21H36V22H35zM36,21H37V22H36zM37,21H38V22H37zM38,21H39V22H38zM39,21H40V22H39zM41,21H42V22H41zM42,21H43V22H42zM45,21H46V22H45zM46,21H47V22H46zM48,21H49V22H48zM49,21H50V22H49zM3,22H4V23H3zM6,22H7V23H6zM7,22H8V23H7zM8,22H9V23H8zM9,22H10V23H9zM11,22H12V23H11zM12,22H13V23H12zM17,22H18V23H17zM18,22H19V23H18zM21,22H22V23H21zM24,22H25V23H24zM26,22H27V23H26zM28,22H29V23H28zM31,22H32V23H31zM34,22H35V23H34zM35,22H36V23H35zM36,22H37V23H36zM38,22H39V23H38zM40,22H41V23H40zM41,22H42V23H41zM42,22H43V23H42zM43,22H44V23H43zM44,22H45V23H44zM45,22H46V23H45zM46,22H47V23H46zM47,22H48V23H47zM48,22H49V23H48zM50,22H51V23H50zM2,23H3V24H2zM4,23H5V24H4zM7,23H8V24H7zM9,23H10V24H9zM10,23H11V24H10zM11,23H12V24H11zM12,23H13V24H12zM14,23H15V24H14zM16,23H17V24H16zM18,23H19V24H18zM19,23H20V24H19zM21,23H22V24H21zM22,23H23V24H22zM24,23H25V24H24zM25,23H26V24H25zM27,23H28V24H27zM28,23H29V24H28zM29,23H30V24H29zM30,23H31V24H30zM31,23H32V24H31zM32,23H33V24H32zM33,23H34V24H33zM34,23H35V24H34zM35,23H36V24H35zM38,23H39V24H38zM40,23H41V24H40zM41,23H42V24H41zM43,23H44V24H43zM44,23H45V24H44zM5,24H6V25H5zM6,24H7V25H6zM7,24H8V25H7zM8,24H9V25H8zM9,24H10V25H9zM10,24H11V25H10zM12,24H13V25H12zM14,24H15V25H14zM18,24H19V25H18zM23,24H24V25H23zM24,24H25V25H24zM25,24H26V25H25zM26,24H27V25H26zM27,24H28V25H27zM28,24H29V25H28zM29,24H30V25H29zM30,24H31V25H30zM31,24H32V25H31zM32,24H33V25H32zM34,24H35V25H34zM37,24H38V25H37zM40,24H41V25H40zM41,24H42V25H41zM42,24H43V25H42zM43,24H44V25H43zM44,24H45V25H44zM45,24H46V25H45zM46,24H47V25H46zM47,24H48V25H47zM48,24H49V25H48zM5,25H6V26H5zM6,25H7V26H6zM10,25H11V26H10zM13,25H14V26H13zM14,25H15V26H14zM21,25H22V26H21zM23,25H24V26H23zM24,25H25V26H24zM28,25H29V26H28zM29,25H30V26H29zM32,25H33V26H32zM34,25H35V26H34zM36,25H37V26H36zM37,25H38V26H37zM38,25H39V26H38zM39,25H40V26H39zM40,25H41V26H40zM41,25H42V26H41zM42,25H43V26H42zM46,25H47V26H46zM48,25H49V26H48zM49,25H50V26H49zM2,26H3V27H2zM3,26H4V27H3zM6,26H7V27H6zM8,26H9V27H8zM10,26H11V27H10zM11,26H12V27H11zM13,26H14V27H13zM14,26H15V27H14zM15,26H16V27H15zM18,26H19V27H18zM19,26H20V27H19zM21,26H22V27H21zM24,26H25V27H24zM26,26H27V27H26zM28,26H29V27H28zM29,26H30V27H29zM34,26H35V27H34zM35,26H36V27H35zM38,26H39V27H38zM39,26H40V27H39zM40,26H41V27H40zM41,26H42V27H41zM42,26H43V27H42zM44,26H45V27H44zM46,26H47V27H46zM47,26H48V27H47zM48,26H49V27H48zM49,26H50V27H49zM50,26H51V27H50zM3,27H4V28H3zM4,27H5V28H4zM6,27H7V28H6zM10,27H11V28H10zM14,27H15V28H14zM16,27H17V28H16zM19,27H20V28H19zM20,27H21V28H20zM21,27H22V28H21zM22,27H23V28H22zM23,27H24V28H23zM24,27H25V28H24zM28,27H29V28H28zM31,27H32V28H31zM32,27H33V28H32zM33,27H34V28H33zM34,27H35V28H34zM35,27H36V28H35zM38,27H39V28H38zM40,27H41V28H40zM42,27H43V28H42zM46,27H47V28H46zM47,27H48V28H47zM48,27H49V28H48zM49,27H50V28H49zM3,28H4V29H3zM4,28H5V29H4zM6,28H7V29H6zM7,28H8V29H7zM8,28H9V29H8zM9,28H10V29H9zM10,28H11V29H10zM11,28H12V29H11zM12,28H13V29H12zM13,28H14V29H13zM14,28H15V29H14zM16,28H17V29H16zM17,28H18V29H17zM18,28H19V29H18zM24,28H25V29H24zM25,28H26V29H25zM26,28H27V29H26zM27,28H28V29H27zM28,28H29V29H28zM31,28H32V29H31zM32,28H33V29H32zM33,28H34V29H33zM35,28H36V29H35zM37,28H38V29H37zM38,28H39V29H38zM40,28H41V29H40zM41,28H42V29H41zM42,28H43V29H42zM43,28H44V29H43zM44,28H45V29H44zM45,28H46V29H45zM46,28H47V29H46zM47,28H48V29H47zM6,29H7V30H6zM11,29H12V30H11zM14,29H15V30H14zM16,29H17V30H16zM17,29H18V30H17zM18,29H19V30H18zM19,29H20V30H19zM21,29H22V30H21zM23,29H24V30H23zM24,29H25V30H24zM26,29H27V30H26zM27,29H28V30H27zM32,29H33V30H32zM33,29H34V30H33zM34,29H35V30H34zM35,29H36V30H35zM36,29H37V30H36zM37,29H38V30H37zM38,29H39V30H38zM39,29H40V30H39zM40,29H41V30H40zM42,29H43V30H42zM43,29H44V30H43zM44,29H45V30H44zM48,29H49V30H48zM49,29H50V30H49zM8,30H9V31H8zM9,30H10V31H9zM12,30H13V31H12zM13,30H14V31H13zM14,30H15V31H14zM15,30H16V31H15zM17,30H18V31H17zM18,30H19V31H18zM20,30H21V31H20zM21,30H22V31H21zM22,30H23V31H22zM24,30H25V31H24zM25,30H26V31H25zM26,30H27V31H26zM29,30H30V31H29zM31,30H32V31H31zM32,30H33V31H32zM34,30H35V31H34zM35,30H36V31H35zM38,30H39V31H38zM40,30H41V31H40zM42,30H43V31H42zM43,30H44V31H43zM44,30H45V31H44zM45,30H46V31H45zM48,30H49V31H48zM49,30H50V31H49zM50,30H51V31H50zM2,31H3V32H2zM3,31H4V32H3zM4,31H5V32H4zM7,31H8V32H7zM10,31H11V32H10zM13,31H14V32H13zM15,31H16V32H15zM16,31H17V32H16zM24,31H25V32H24zM26,31H27V32H26zM27,31H28V32H27zM31,31H32V32H31zM32,31H33V32H32zM34,31H35V32H34zM35,31H36V32H35zM40,31H41V32H40zM41,31H42V32H41zM44,31H45V32H44zM45,31H46V32H45zM46,31H47V32H46zM48,31H49V32H48zM2,32H3V33H2zM4,32H5V33H4zM5,32H6V33H5zM8,32H9V33H8zM13,32H14V33H13zM16,32H17V33H16zM22,32H23V33H22zM27,32H28V33H27zM29,32H30V33H29zM32,32H33V33H32zM33,32H34V33H33zM35,32H36V33H35zM40,32H41V33H40zM41,32H42V33H41zM47,32H48V33H47zM48,32H49V33H48zM5,33H6V34H5zM7,33H8V34H7zM9,33H10V34H9zM11,33H12V34H11zM16,33H17V34H16zM17,33H18V34H17zM21,33H22V34H21zM22,33H23V34H22zM24,33H25V34H24zM25,33H26V34H25zM28,33H29V34H28zM29,33H30V34H29zM30,33H31V34H30zM32,33H33V34H32zM37,33H38V34H37zM43,33H44V34H43zM44,33H45V34H44zM48,33H49V34H48zM50,33H51V34H50zM4,34H5V35H4zM5,34H6V35H5zM8,34H9V35H8zM9,34H10V35H9zM11,34H12V35H11zM13,34H14V35H13zM17,34H18V35H17zM18,34H19V35H18zM19,34H20V35H19zM21,34H22V35H21zM23,34H24V35H23zM24,34H25V35H24zM29,34H30V35H29zM30,34H31V35H30zM36,34H37V35H36zM37,34H38V35H37zM40,34H41V35H40zM42,34H43V35H42zM43,34H44V35H43zM45,34H46V35H45zM48,34H49V35H48zM49,34H50V35H49zM2,35H3V36H2zM3,35H4V36H3zM5,35H6V36H5zM7,35H8V36H7zM10,35H11V36H10zM11,35H12V36H11zM13,35H14V36H13zM15,35H16V36H15zM16,35H17V36H16zM22,35H23V36H22zM23,35H24V36H23zM25,35H26V36H25zM26,35H27V36H26zM28,35H29V36H28zM30,35H31V36H30zM31,35H32V36H31zM33,35H34V36H33zM35,35H36V36H35zM36,35H37V36H36zM39,35H40V36H39zM40,35H41V36H40zM42,35H43V36H42zM43,35H44V36H43zM46,35H47V36H46zM47,35H48V36H47zM49,35H50V36H49zM3,36H4V37H3zM5,36H6V37H5zM8,36H9V37H8zM9,36H10V37H9zM10,36H11V37H10zM11,36H12V37H11zM16,36H17V37H16zM18,36H19V37H18zM19,36H20V37H19zM21,36H22V37H21zM23,36H24V37H23zM27,36H28V37H27zM31,36H32V37H31zM33,36H34V37H33zM34,36H35V37H34zM35,36H36V37H35zM36,36H37V37H36zM38,36H39V37H38zM40,36H41V37H40zM43,36H44V37H43zM45,36H46V37H45zM47,36H48V37H47zM48,36H49V37H48zM3,37H4V38H3zM4,37H5V38H4zM5,37H6V38H5zM6,37H7V38H6zM7,37H8V38H7zM9,37H10V38H9zM10,37H11V38H10zM11,37H12V38H11zM12,37H13V38H12zM14,37H15V38H14zM16,37H17V38H16zM19,37H20V38H19zM20,37H21V38H20zM21,37H22V38H21zM22,37H23V38H22zM23,37H24V38H23zM24,37H25V38H24zM26,37H27V38H26zM27,37H28V38H27zM28,37H29V38H28zM29,37H30V38H29zM31,37H32V38H31zM32,37H33V38H32zM34,37H35V38H34zM36,37H37V38H36zM38,37H39V38H38zM39,37H40V38H39zM43,37H44V38H43zM44,37H45V38H44zM45,37H46V38H45zM46,37H47V38H46zM48,37H49V38H48zM2,38H3V39H2zM3,38H4V39H3zM5,38H6V39H5zM6,38H7V39H6zM7,38H8V39H7zM8,38H9V39H8zM11,38H12V39H11zM15,38H16V39H15zM16,38H17V39H16zM18,38H19V39H18zM23,38H24V39H23zM27,38H28V39H27zM28,38H29V39H28zM29,38H30V39H29zM31,38H32V39H31zM32,38H33V39H32zM34,38H35V39H34zM35,38H36V39H35zM37,38H38V39H37zM38,38H39V39H38zM39,38H40V39H39zM40,38H41V39H40zM42,38H43V39H42zM43,38H44V39H43zM45,38H46V39H45zM47,38H48V39H47zM48,38H49V39H48zM49,38H50V39H49zM50,38H51V39H50zM7,39H8V40H7zM9,39H10V40H9zM11,39H12V40H11zM13,39H14V40H13zM15,39H16V40H15zM16,39H17V40H16zM17,39H18V40H17zM22,39H23V40H22zM25,39H26V40H25zM26,39H27V40H26zM28,39H29V40H28zM29,39H30V40H29zM31,39H32V40H31zM32,39H33V40H32zM34,39H35V40H34zM35,39H36V40H35zM37,39H38V40H37zM40,39H41V40H40zM43,39H44V40H43zM44,39H45V40H44zM46,39H47V40H46zM47,39H48V40H47zM3,40H4V41H3zM7,40H8V41H7zM8,40H9V41H8zM9,40H10V41H9zM11,40H12V41H11zM12,40H13V41H12zM13,40H14V41H13zM14,40H15V41H14zM15,40H16V41H15zM17,40H18V41H17zM18,40H19V41H18zM19,40H20V41H19zM21,40H22V41H21zM25,40H26V41H25zM26,40H27V41H26zM29,40H30V41H29zM30,40H31V41H30zM32,40H33V41H32zM33,40H34V41H33zM34,40H35V41H34zM35,40H36V41H35zM38,40H39V41H38zM40,40H41V41H40zM41,40H42V41H41zM47,40H48V41H47zM3,41H4V42H3zM4,41H5V42H4zM5,41H6V42H5zM9,41H10V42H9zM13,41H14V42H13zM14,41H15V42H14zM15,41H16V42H15zM16,41H17V42H16zM17,41H18V42H17zM19,41H20V42H19zM20,41H21V42H20zM24,41H25V42H24zM28,41H29V42H28zM29,41H30V42H29zM31,41H32V42H31zM32,41H33V42H32zM33,41H34V42H33zM34,41H35V42H34zM35,41H36V42H35zM36,41H37V42H36zM37,41H38V42H37zM38,41H39V42H38zM40,41H41V42H40zM44,41H45V42H44zM46,41H47V42H46zM48,41H49V42H48zM2,42H3V43H2zM3,42H4V43H3zM4,42H5V43H4zM8,42H9V43H8zM11,42H12V43H11zM14,42H15V43H14zM15,42H16V43H15zM16,42H17V43H16zM17,42H18V43H17zM20,42H21V43H20zM21,42H22V43H21zM23,42H24V43H23zM24,42H25V43H24zM25,42H26V43H25zM26,42H27V43H26zM27,42H28V43H27zM28,42H29V43H28zM29,42H30V43H29zM32,42H33V43H32zM34,42H35V43H34zM35,42H36V43H35zM36,42H37V43H36zM37,42H38V43H37zM38,42H39V43H38zM40,42H41V43H40zM42,42H43V43H42zM43,42H44V43H43zM44,42H45V43H44zM45,42H46V43H45zM46,42H47V43H46zM48,42H49V43H48zM49,42H50V43H49zM10,43H11V44H10zM12,43H13V44H12zM13,43H14V44H13zM16,43H17V44H16zM17,43H18V44H17zM18,43H19V44H18zM22,43H23V44H22zM23,43H24V44H23zM24,43H25V44H24zM28,43H29V44H28zM29,43H30V44H29zM32,43H33V44H32zM40,43H41V44H40zM41,43H42V44H41zM42,43H43V44H42zM46,43H47V44H46zM47,43H48V44H47zM49,43H50V44H49zM2,44H3V45H2zM3,44H4V45H3zM4,44H5V45H4zM5,44H6V45H5zM6,44H7V45H6zM7,44H8V45H7zM8,44H9V45H8zM10,44H11V45H10zM11,44H12V45H11zM12,44H13V45H12zM14,44H15V45H14zM15,44H16V45H15zM16,44H17V45H16zM18,44H19V45H18zM19,44H20V45H19zM20,44H21V45H20zM22,44H23V45H22zM24,44H25V45H24zM26,44H27V45H26zM28,44H29V45H28zM31,44H32V45H31zM32,44H33V45H32zM33,44H34V45H33zM34,44H35V45H34zM35,44H36V45H35zM38,44H39V45H38zM40,44H41V45H40zM42,44H43V45H42zM44,44H45V45H44zM46,44H47V45H46zM2,45H3V46H2zM8,45H9V46H8zM12,45H13V46H12zM13,45H14V46H13zM15,45H16V46H15zM17,45H18V46H17zM18,45H19V46H18zM21,45H22V46H21zM22,45H23V46H22zM23,45H24V46H23zM24,45H25V46H24zM28,45H29V46H28zM29,45H30V46H29zM34,45H35V46H34zM35,45H36V46H35zM36,45H37V46H36zM38,45H39V46H38zM40,45H41V46H40zM42,45H43V46H42zM46,45H47V46H46zM47,45H48V46H47zM48,45H49V46H48zM2,46H3V47H2zM4,46H5V47H4zM5,46H6V47H5zM6,46H7V47H6zM8,46H9V47H8zM10,46H11V47H10zM12,46H13V47H12zM14,46H15V47H14zM15,46H16V47H15zM16,46H17V47H16zM17,46H18V47H17zM18,46H19V47H18zM19,46H20V47H19zM20,46H21V47H20zM22,46H23V47H22zM23,46H24V47H23zM24,46H25V47H24zM25,46H26V47H25zM26,46H27V47H26zM27,46H28V47H27zM28,46H29V47H28zM29,46H30V47H29zM32,46H33V47H32zM34,46H35V47H34zM35,46H36V47H35zM36,46H37V47H36zM37,46H38V47H37zM38,46H39V47H38zM39,46H40V47H39zM40,46H41V47H40zM41,46H42V47H41zM42,46H43V47H42zM43,46H44V47H43zM44,46H45V47H44zM45,46H46V47H45zM46,46H47V47H46zM48,46H49V47H48zM49,46H50V47H49zM2,47H3V48H2zM4,47H5V48H4zM5,47H6V48H5zM6,47H7V48H6zM8,47H9V48H8zM11,47H12V48H11zM12,47H13V48H12zM16,47H17V48H16zM17,47H18V48H17zM21,47H22V48H21zM22,47H23V48H22zM24,47H25V48H24zM31,47H32V48H31zM32,47H33V48H32zM33,47H34V48H33zM34,47H35V48H34zM37,47H38V48H37zM38,47H39V48H38zM40,47H41V48H40zM42,47H43V48H42zM44,47H45V48H44zM47,47H48V48H47zM48,47H49V48H48zM49,47H50V48H49zM2,48H3V49H2zM4,48H5V49H4zM5,48H6V49H5zM6,48H7V49H6zM8,48H9V49H8zM16,48H17V49H16zM17,48H18V49H17zM21,48H22V49H21zM28,48H29V49H28zM30,48H31V49H30zM31,48H32V49H31zM32,48H33V49H32zM33,48H34V49H33zM35,48H36V49H35zM40,48H41V49H40zM42,48H43V49H42zM45,48H46V49H45zM2,49H3V50H2zM8,49H9V50H8zM12,49H13V50H12zM13,49H14V50H13zM15,49H16V50H15zM16,49H17V50H16zM17,49H18V50H17zM18,49H19V50H18zM20,49H21V50H20zM23,49H24V50H23zM27,49H28V50H27zM28,49H29V50H28zM30,49H31V50H30zM31,49H32V50H31zM33,49H34V50H33zM35,49H36V50H35zM36,49H37V50H36zM37,49H38V50H37zM39,49H40V50H39zM40,49H41V50H40zM42,49H43V50H42zM43,49H44V50H43zM48,49H49V50H48zM49,49H50V50H49zM2,50H3V51H2zM3,50H4V51H3zM4,50H5V51H4zM5,50H6V51H5zM6,50H7V51H6zM7,50H8V51H7zM8,50H9V51H8zM10,50H11V51H10zM13,50H14V51H13zM15,50H16V51H15zM16,50H17V51H16zM17,50H18V51H17zM20,50H21V51H20zM21,50H22V51H21zM27,50H28V51H27zM28,50H29V51H28zM31,50H32V51H31zM32,50H33V51H32zM33,50H34V51H33zM34,50H35V51H34zM35,50H36V51H35zM38,50H39V51H38zM45,50H46V51H45zM46,50H47V51H46zM47,50H48V51H47zM48,50H49V51H48zM49,50H50V51H49zM50,50H51V51H50z" id="qr-path" fill="#000000" fill-opacity="1" fill-rule="nonzero" stroke="none" /></svg>